<?xml version="1.0" standalone="no"?>
<!DOCTYPE svg PUBLIC "-//W3C//DTD SVG 20010904//EN"
 "http://www.w3.org/TR/2001/REC-SVG-20010904/DTD/svg10.dtd">
<svg version="1.0" xmlns="http://www.w3.org/2000/svg"
 width="500.000000pt" height="500.000000pt" viewBox="0 0 500.000000 500.000000"
 preserveAspectRatio="xMidYMid meet">
<metadata>
Created by potrace 1.14, written by Peter Selinger 2001-2017
</metadata>
<g transform="translate(0.000000,500.000000) scale(0.100000,-0.100000)"
fill="#000000" stroke="none">
<path d="M863 4260 c-80 -19 -156 -85 -197 -170 -21 -45 -21 -46 -22 -1080
l-2 -1035 -30 -65 c-16 -36 -44 -96 -62 -135 -66 -141 -98 -211 -125 -270 -15
-33 -50 -107 -77 -165 l-50 -105 4 -150 c3 -133 6 -155 26 -197 30 -61 73
-102 142 -136 l55 -27 1955 -2 c2149 -3 2015 -7 2110 58 95 65 120 133 120
325 l0 132 -46 99 c-26 54 -72 154 -104 223 -62 135 -127 274 -166 355 l-24
52 -2 1039 -3 1039 -28 57 c-30 61 -74 105 -140 140 l-42 23 -1630 2 c-896 0
-1644 -2 -1662 -7z m2790 -190 l468 0 24 -24 25 -25 0 -1009 0 -1009 -1665 0
-1665 0 2 1013 c3 957 4 1014 21 1031 16 17 57 18 565 23 301 3 819 4 1152 3
333 -1 816 -3 1073 -3z m576 -2275 c11 -12 221 -463 221 -476 0 -5 -775 -9
-1945 -9 -1105 0 -1945 4 -1945 9 0 8 28 71 112 251 24 52 59 127 77 165 l32
70 1719 0 c1117 0 1723 -4 1729 -10z m282 -688 c10 -14 0 -128 -12 -144 -7 -8
-26 -21 -43 -30 -27 -14 -221 -16 -1941 -16 -1441 0 -1920 3 -1947 12 -53 18
-71 43 -73 104 0 28 2 59 6 67 6 13 239 15 2006 15 1099 0 2001 -3 2004 -8z"/>
</g>
</svg>
